<svg width="17" height="17" viewBox="0 0 17 17" fill="none" xmlns="http://www.w3.org/2000/svg">
<path d="M6.375 7.7915H4.95833V9.20817H6.375V7.7915ZM9.20833 7.7915H7.79167V9.20817H9.20833V7.7915ZM12.0417 7.7915H10.625V9.20817H12.0417V7.7915ZM13.4583 2.83317H12.75V1.4165H11.3333V2.83317H5.66667V1.4165H4.25V2.83317H3.54167C2.75542 2.83317 2.13208 3.47067 2.13208 4.24984L2.125 14.1665C2.125 14.9457 2.75542 15.5832 3.54167 15.5832H13.4583C14.2375 15.5832 14.875 14.9457 14.875 14.1665V4.24984C14.875 3.47067 14.2375 2.83317 13.4583 2.83317ZM13.4583 14.1665H3.54167V6.37484H13.4583V14.1665Z" fill="#316CF5"/>
</svg>
