<svg width="19" height="19" viewBox="0 0 19 19" fill="none" xmlns="http://www.w3.org/2000/svg">
<path d="M15.5125 3.10254H3.10251C2.24933 3.10254 1.55903 3.8006 1.55903 4.65378L1.55127 13.9613C1.55127 14.8144 2.24933 15.5125 3.10251 15.5125H15.5125C16.3657 15.5125 17.0637 14.8144 17.0637 13.9613V4.65378C17.0637 3.8006 16.3657 3.10254 15.5125 3.10254ZM15.2022 6.39893L9.71857 9.82719C9.47037 9.98231 9.14461 9.98231 8.89641 9.82719L3.41276 6.39893C3.21886 6.27483 3.10251 6.06542 3.10251 5.84049C3.10251 5.32082 3.66872 5.01057 4.11082 5.28204L9.30749 8.5319L14.5042 5.28204C14.9463 5.01057 15.5125 5.32082 15.5125 5.84049C15.5125 6.06542 15.3961 6.27483 15.2022 6.39893Z" fill="#3A964C"/>
</svg>
